<?xml version="1.0" standalone="no"?>
<!DOCTYPE svg PUBLIC "-//W3C//DTD SVG 20010904//EN"
 "http://www.w3.org/TR/2001/REC-SVG-20010904/DTD/svg10.dtd">
<svg version="1.0" xmlns="http://www.w3.org/2000/svg"
 width="16.000000pt" height="16.000000pt" viewBox="0 0 16.000000 16.000000"
 preserveAspectRatio="xMidYMid meet">
<metadata>
Created by potrace 1.11, written by Peter Selinger 2001-2013
</metadata>
<g transform="translate(0.000000,16.000000) scale(0.002286,-0.002286)"
fill="#000000" stroke="none">
<path d="M2690 6923 c-73 -24 -136 -53 -195 -91 -38 -25 -72 -47 -75 -51 -3
-3 -32 -26 -65 -50 -63 -47 -301 -281 -372 -366 -104 -125 -154 -193 -199
-274 -254 -453 -349 -828 -292 -1158 19 -106 33 -150 112 -339 69 -167 87
-247 91 -399 2 -100 -1 -146 -16 -202 -29 -115 -157 -367 -371 -728 -238 -404
-332 -612 -374 -830 -4 -22 -9 -47 -11 -55 -3 -8 -6 -82 -8 -165 -4 -140 -2
-158 25 -262 169 -661 662 -1238 1350 -1583 36 -17 73 -36 82 -41 115 -59 454
-173 613 -205 29 -6 184 -32 225 -38 193 -28 674 -29 852 -1 13 2 44 6 69 9
157 22 419 81 534 121 371 128 619 255 880 450 120 90 135 103 243 209 248
240 393 579 395 921 1 94 -5 187 -16 245 -15 76 -69 261 -107 365 -11 33 -23
67 -25 75 -2 8 -11 33 -20 55 -33 79 -42 101 -75 180 -32 76 -56 132 -86 202
-8 18 -37 90 -65 160 -138 346 -184 541 -183 778 2 319 91 541 405 1018 43 64
72 117 65 117 -49 0 -290 -98 -391 -160 -37 -22 -69 -40 -72 -40 -17 0 -214
-161 -291 -239 -76 -77 -232 -269 -232 -285 0 -7 -91 -153 -144 -231 -93 -138
-168 -328 -196 -495 -7 -41 -14 -84 -16 -95 -10 -51 -3 -288 11 -365 20 -116
20 -114 48 -212 36 -124 57 -232 60 -315 7 -163 -35 -337 -107 -446 -52 -79
-212 -221 -306 -273 -19 -10 -45 -26 -57 -35 -79 -58 -340 -146 -488 -165 -22
-3 -62 -9 -90 -13 -149 -21 -435 7 -605 60 -139 44 -307 126 -424 209 -74 52
-237 217 -283 285 -40 60 -81 133 -81 148 0 4 -6 33 -13 65 -35 170 10 441
111 659 16 35 30 66 30 68 0 1 25 56 56 121 145 307 170 365 226 523 28 80 52
171 62 236 2 17 8 50 11 74 24 147 5 381 -41 531 -50 161 -111 269 -243 430
-82 99 -166 255 -212 390 -17 52 -32 100 -33 105 -1 6 -5 16 -9 23 -5 6 -6 12
-4 12 3 0 1 17 -4 38 -17 75 -23 150 -23 287 0 264 59 434 328 938 31 59 56
107 54 106 -2 0 -10 -3 -18 -6z"/>
<path d="M3650 6890 c-47 -10 -105 -25 -130 -34 -55 -21 -186 -91 -206 -111
-9 -8 -19 -15 -23 -15 -16 0 -161 -151 -199 -207 -103 -152 -153 -305 -157
-484 -8 -315 142 -602 404 -776 52 -35 188 -99 228 -108 138 -31 182 -37 263
-37 540 1 963 486 886 1017 -10 70 -29 150 -38 159 -4 6 -8 16 -8 22 0 24 -59
139 -102 200 -136 194 -298 306 -533 369 -92 25 -282 28 -385 5z"/>
</g>
</svg>
